<svg viewBox="0 0 304 50" xmlns="http://www.w3.org/2000/svg" xmlns:xlink="http://www.w3.org/1999/xlink"><defs><filter x="-1.3%" y="-9.1%" width="102.7%" height="122.7%" filterUnits="objectBoundingBox" id="a"><feOffset dy="2" in="SourceAlpha" result="shadowOffsetOuter1"/><feGaussianBlur stdDeviation="1" in="shadowOffsetOuter1" result="shadowBlurOuter1"/><feComposite in="shadowBlurOuter1" in2="SourceAlpha" operator="out" result="shadowBlurOuter1"/><feColorMatrix values="0 0 0 0 0 0 0 0 0 0 0 0 0 0 0 0 0 0 0.12 0" in="shadowBlurOuter1" result="shadowMatrixOuter1"/><feOffset in="SourceAlpha" result="shadowOffsetOuter2"/><feGaussianBlur stdDeviation="1" in="shadowOffsetOuter2" result="shadowBlurOuter2"/><feComposite in="shadowBlurOuter2" in2="SourceAlpha" operator="out" result="shadowBlurOuter2"/><feColorMatrix values="0 0 0 0 0 0 0 0 0 0 0 0 0 0 0 0 0 0 0.12 0" in="shadowBlurOuter2" result="shadowMatrixOuter2"/><feMerge><feMergeNode in="shadowMatrixOuter1"/><feMergeNode in="shadowMatrixOuter2"/></feMerge></filter><path d="M12 0h276c6.627417 0 12 5.372583 12 12v20c0 6.627417-5.372583 12-12 12H12C5.372583 44 0 38.627417 0 32V12C0 5.372583 5.372583 0 12 0z" id="b"/></defs><g fill="none" fill-rule="evenodd"><g transform="translate(2 2)"><use fill="#000" filter="url(#a)" xlink:href="#b"/><path stroke="#231F20" d="M288 .5c3.175637 0 6.050637 1.28718134 8.131728 3.36827202C298.212819 5.94936269 299.5 8.82436269 299.5 12h0v20c0 3.1756373-1.287181 6.0506373-3.368272 8.131728C294.050637 42.2128187 291.175637 43.5 288 43.5h0H12c-3.17563731 0-6.05063731-1.2871813-8.13172798-3.368272C1.78718134 38.0506373.5 35.1756373.5 32h0V12c0-3.17563731 1.28718134-6.05063731 3.36827202-8.13172798C5.94936269 1.78718134 8.82436269.5 12 .5h0z" stroke-linejoin="square" fill="#FFF"/></g><path d="M251.162 19.718v-1.887h-1.87v1.887h1.87zm3.213 0v-1.887h-1.87v1.887h1.87zM251.587 29c1.887 0 2.839-1.02 2.839-3.077v-4.641h-1.904v3.995c0 .612-.051 1.02-.136 1.224-.187.374-.578.561-1.207.561h-1.598V29h2.006zm-1.581 0v-1.938h-2.907c.289-.612.425-1.309.425-2.108v-3.672h-1.921v3.91c0 1.241-.476 1.87-1.445 1.87h-1.853c.255-.272.391-.969.391-2.074v-3.706h-1.921v3.893c0 1.258-.476 1.887-1.445 1.887h-1.768v-.102c.204-.323.306-.969.306-1.972v-3.706h-1.921v3.774c0 1.343-.476 2.006-1.445 2.006h-1.734V29h17.238zm-16.643 0v-1.938h-1.802c-.153-2.363-1.003-4.012-2.55-4.964-.884-.544-1.921-.816-3.094-.816-.748 0-1.496.153-2.244.476-.697.306-1.292.714-1.819 1.207.425.646.731 1.139.918 1.496.408-.459.918-.816 1.53-1.071.527-.221 1.003-.323 1.428-.323 1.241 0 2.227.425 2.924 1.292.595.748.884 1.649.884 2.703h-9.826V29h13.651zm-6.545 3.723v-1.904h-1.87v1.904h1.87zM220.171 29v-1.938h-3.196c.289-.323.425-.969.425-1.972v-3.808h-1.887v3.91c0 .595-.068 1.037-.204 1.292-.204.391-.595.578-1.156.578h-1.819V29h7.837zm-2.839 3.723v-1.904h-1.87v1.904h1.87zm-3.213 0v-1.904h-1.87v1.904h1.87zm-9.129-.901c1.87 0 3.621-1.054 4.59-2.822h3.536v-1.938h-2.873c.068-.357.102-.697.102-1.054v-7.973h-1.921v7.752c0 2.397-1.428 4.216-3.434 4.216-2.074 0-3.468-1.87-3.468-4.216v-1.445h-1.921v1.666c0 3.196 2.431 5.814 5.389 5.814zM194.433 29V18.018h-1.887V29h1.887zm-6.494 0c1.904 0 2.856-1.02 2.856-3.077v-7.888h-1.904v7.242c0 .612-.051 1.02-.136 1.224-.187.374-.578.561-1.207.561h-1.615V29h2.006zm-1.156 0v-1.938h-2.958c-.017-2.907-1.156-4.743-3.434-5.508-.442-.153-.782-.221-1.02-.238-.238-.017-.833-.034-1.768-.034v1.734c.612 0 1.19.034 1.717.153 1.717.374 2.584 1.666 2.584 3.893h-6.154V29h11.033zm-17.408-9.316v-1.887h-1.87v1.887h1.87zM174.152 29v-1.19c0-2.669-.799-4.522-2.414-5.593-.918-.629-2.006-.935-3.264-.935-.748 0-1.496.153-2.244.476-.697.306-1.292.714-1.819 1.207.425.646.731 1.139.918 1.496.408-.459.918-.816 1.53-1.071.527-.221 1.003-.323 1.428-.323 1.241 0 2.227.425 2.924 1.292.595.748.884 1.649.884 2.703h-9.911V29h11.968zm-17.459 2.805c2.21 0 3.451-.935 3.706-2.805h2.312v-1.938h-2.329V25.09c0-2.227-1.462-3.825-3.536-3.825-2.159 0-3.808 1.53-3.808 3.774 0 2.244 1.666 3.961 3.723 3.961h1.819c-.272.901-.901 1.309-1.887 1.309v1.496zm1.785-4.743h-1.683c-1.02 0-1.819-.952-1.819-2.125 0-1.139.714-1.921 1.836-1.921.986 0 1.564.714 1.666 1.717v2.329zm-12.393 4.76c2.958 0 5.355-2.686 5.355-5.814v-7.973h-1.921v7.752c0 2.363-1.428 4.216-3.434 4.216-2.074 0-3.468-1.887-3.468-4.216v-1.445h-1.921v1.666c0 3.196 2.431 5.814 5.389 5.814zM132.655 29c1.887 0 2.839-1.02 2.839-3.077v-4.641h-1.887v3.995c0 .612-.051 1.02-.136 1.224-.187.374-.578.561-1.207.561h-1.445V29h1.836zm2.822 3.723v-1.904h-1.853v1.904h1.853zM131.295 29v-1.938h-1.122c-.714 0-1.207-.102-1.462-.289-.357-.255-.544-.799-.544-1.632v-7.106h-1.887v7.871c0 .935.221 1.666.68 2.21.493.595 1.19.884 2.108.884h2.227zm-9.622 0c1.904 0 2.856-1.02 2.856-3.077v-7.888h-1.904v7.242c0 .612-.051 1.02-.136 1.224-.187.374-.578.561-1.207.561h-1.615V29h2.006zm-1.513 0v-1.938h-1.513c0-4.284-2.176-7.48-5.865-8.228l-.238 1.819c2.465.51 4.216 3.026 4.216 5.882 0 .17 0 .34-.017.527h-2.244c.289-.697.442-1.292.442-1.768 0-2.04-1.36-3.298-3.349-3.298s-3.366 1.258-3.366 3.298c0 .493.153 1.071.442 1.768h-2.346V29h13.838zm-8.568-1.887c-.918 0-1.564-.782-1.564-1.819 0-1.02.561-1.785 1.564-1.785.935 0 1.564.714 1.564 1.785 0 1.02-.663 1.819-1.564 1.819zm-10.88 4.692c2.21 0 3.451-.935 3.706-2.805h2.312v-1.938h-2.329V25.09c0-2.227-1.462-3.825-3.536-3.825-2.159 0-3.808 1.53-3.808 3.774 0 2.244 1.666 3.961 3.723 3.961h1.819c-.272.901-.901 1.309-1.887 1.309v1.496zm1.785-4.743h-1.683c-1.02 0-1.819-.952-1.819-2.125 0-1.139.714-1.921 1.836-1.921.986 0 1.564.714 1.666 1.717v2.329zM92.62 29c1.887 0 2.839-1.02 2.839-3.077v-4.641h-1.904v3.995c0 .612-.051 1.02-.136 1.224-.187.374-.578.561-1.207.561h-1.598V29h2.006zm-.425 3.723v-1.904h-1.87v1.904h1.87zm3.213 0v-1.904h-1.87v1.904h1.87zM84.511 18.256v-1.904h-1.87v1.904h1.87zm3.213 0v-1.904h-1.87v1.904h1.87zM90.988 29v-1.938h-1.207c-1.275 0-1.904-.714-1.904-2.04v-5.389h-4.199c-2.176 0-3.519 1.581-3.519 4.131 0 2.363 1.343 3.995 3.519 3.995.85 0 1.581-.425 2.176-1.275.391 1.513 1.598 2.516 3.077 2.516h2.057zm-7.072-2.822c-1.139 0-1.87-1.122-1.87-2.431 0-1.581.816-2.635 2.142-2.635h1.717v2.465c0 1.445-.748 2.601-1.989 2.601zM74.991 29V18.018h-1.887V29h1.887zm-6.494 0c1.904 0 2.856-1.02 2.856-3.077v-7.888h-1.904v7.242c0 .612-.051 1.02-.136 1.224-.187.374-.578.561-1.207.561h-1.615V29h2.006zm-8.517 2.822c2.312 0 3.859-1.003 4.148-2.822h3.043v-1.938h-2.924v-5.78h-1.904v6.494c0 1.632-.782 2.414-2.363 2.414v1.632zm-2.533-12.155V17.78h-1.853v1.887h1.853zm-3.23 0V17.78h-1.853v1.887h1.853zM54.914 29c2.278 0 3.808-1.666 3.808-3.91 0-2.227-1.547-3.978-3.808-3.978s-3.842 1.615-3.842 3.927c0 .731.17 1.411.493 2.023h-2.703V29h6.052zm.034-1.751c-1.139 0-1.921-1.003-1.921-2.227 0-1.326.731-2.176 1.819-2.176 1.139 0 1.921.952 1.921 2.244 0 1.258-.714 2.159-1.819 2.159zm-11.084 3.23c1.326 0 2.346-.493 3.077-1.479h2.431v-1.938h-1.7v-.493c0-1.139-.357-2.074-1.054-2.839-.697-.765-1.615-1.139-2.754-1.139s-2.057.374-2.771 1.105c-.697.731-1.054 1.666-1.054 2.805 0 .187 0 .374.017.561H38.22V29h2.601c.731.986 1.734 1.479 3.043 1.479zm.051-1.768c-1.173 0-1.921-1.003-1.921-2.227 0-.595.153-1.105.442-1.496.34-.459.799-.68 1.377-.68.595 0 1.088.238 1.445.697.306.425.459.952.459 1.547 0 .612-.153 1.122-.442 1.513-.323.425-.782.646-1.36.646zM38.713 29v-1.938h-3.196c.289-.323.425-.969.425-1.972v-3.808h-1.887v3.91c0 .595-.068 1.037-.204 1.292-.204.391-.595.578-1.156.578h-1.819V29h7.837zm-2.839 3.723v-1.904h-1.87v1.904h1.87zm-3.213 0v-1.904h-1.87v1.904h1.87zm-7.735-14.467v-1.904h-1.87v1.904h1.87zm3.213 0v-1.904h-1.87v1.904h1.87zM31.403 29v-1.938h-1.207c-1.275 0-1.904-.714-1.904-2.04v-5.389h-4.199c-2.176 0-3.519 1.581-3.519 4.131 0 2.363 1.343 3.995 3.519 3.995.85 0 1.581-.425 2.176-1.275C26.66 27.997 27.867 29 29.346 29h2.057zm-7.072-2.822c-1.139 0-1.87-1.122-1.87-2.431 0-1.581.816-2.635 2.142-2.635h1.717v2.465c0 1.445-.748 2.601-1.989 2.601z" fill="#000" fill-rule="nonzero"/><path d="M270.5694332 35.1112951l.0007015-.0009354c-.0023385-.0011693-.0044432-.0023385-.0067817-.0037417-.0067817-.0044432-.014265-.0081848-.0212806-.0121603-.6218152-.3428285-1.65427619-1.3514365-1.71998888-1.4014811-.00070156-.0009354-.00140312-.001637-.00210468-.0023385l-.00070156.0004677c-.04840757-.0364811-.10032294-.0689866-.15995545-.0919042-.34399778-.1323608-.73429844.0327394-.86993319.3685523-.07483296.1849777-.05448775.3828174.0348441.5458129l.00841871.0320379c.83134744 1.0953675 2.15097995 1.6400111 2.15097995 1.6400111.3224833.1239421.6879955-.0308686.8152116-.3454009.1092093-.2701002.0060802-.5708352-.2294098-.7289198" fill="#E82227"/><path d="M265.37829399 14.78205568c3.97199331-2.0960245 7.94632521-1.9288196 11.91831851.00070156.4415144.21444321.8942539.36317372 1.1552338-.19175947.2287083-.4861804-.1124833-.75136971-.5280401-.96160356-2.1070156-1.065902-4.3384409-1.63486637-6.7174276-1.6287862-2.29222715-.01870823-4.43104675.5404343-6.43165922 1.6213029-.42304009.22824054-.82175947.50371938-.50418709 1.03596882.28085747.47074611.6996882.33932072 1.1077617.12417595M264.09062918 32.2591537c-.36972161 0-.67069043.2934855-.67069043.6543207 0 .3606013.30096882.6540868.67069043.6540868.36995545 0 .67069042-.2934855.67069042-.6540868 0-.3608352-.30073497-.6543207-.67069042-.6543207M272.8201514 21.26144432c0-.36060134-.3007349-.65408686-.6706904-.65408686-.3697216 0-.6704565.29348552-.6704565.65408686 0 .36060134.3007349.65408686.6704565.65408686.3699555 0 .6706904-.29348552.6706904-.65408686M280.0267762 30.7668441c-.3699555 0-.6706905.2934855-.6706905.6540869 0 .3606013.300735.6540868.6706905.6540868.3697216 0 .6704565-.2934855.6704565-.6540868 0-.3606014-.3007349-.6540869-.6704565-.6540869M274.9808831 28.111794c-.3699555 0-.6704566.2934855-.6704566.6540868 0 .3606014.3005011.6540869.6704566.6540869.3697216 0 .6706904-.2934855.6706904-.6540869 0-.3606013-.3009688-.6540868-.6706904-.6540868" fill="#1D1D1A"/><path d="M274.9808831 28.111794c-.3699555 0-.6704566.2934855-.6704566.6540868 0 .3606014.3005011.6540869.6704566.6540869.3697216 0 .6706904-.2934855.6706904-.6540869 0-.3606013-.3009688-.6540868-.6706904-.6540868M283.0617205 23.8096002c-.3699555 0-.6706904.2934855-.6706904.6540869 0 .3608352.3007349.6540868.6706904.6540868.3697216 0 .6706904-.2932516.6706904-.6540868 0-.3606014-.3009688-.6540869-.6706904-.6540869M282.7379042 22.3209621c0-.3606013-.3007349-.65408682-.6706904-.65408682-.3697216 0-.6704566.29348552-.6704566.65408682 0 .3608352.300735.6540869.6704566.6540869.3699555 0 .6706904-.2932517.6706904-.6540869M262.73683073 16.65905345c.36972161 0 .67069043-.29325167.67069043-.65408686 0-.36060133-.30096882-.65408686-.67069043-.65408686-.3697216 0-.67069042.29348553-.67069042.65408686 0 .36083519.30096882.65408686.67069042.65408686M260.25466815 22.4080958c-.25045657 0-.4667706.1363363-.58182628.3351113l-.00233853-.0011692c-.00257238.0065478-.00514476.0128619-.00771715.0194098-.02361915.0437305-.04256125.0897995-.05542316.1386748-.57153675 1.4802895-.60731626 3.0167038-.60731626 3.0167038 0 .3608352.30073497.6540868.67045657.6540868.31687083 0 .58159243-.2160801.65128062-.5046547l.00116927-.0002339c0-.0014031 0-.0025724.00023385-.0037416.01075724-.0467707.01800668-.0951782.01800668-.1454566 0-.0226838-.00467706-.0444321-.00701559-.0666481.08933185-1.4692985.53669265-2.5302896.53669265-2.5302896v-.0002338c.0348441-.0790423.05448775-.1660356.05448775-.2574722 0-.3606013-.30096881-.6540868-.67069042-.6540868" fill="#1D1D1A"/><path d="M267.98208352 18.34763586c-5.51051225 2.14560133-6.93233853 7.27914254-5.43497773 12.29903114.00818486.0439644.02081292.0862918.03741648.1267484.09985524.2389977.34002227.4083073.62087973.4083073.04022272 0 .07927617-.0049109.11762807-.0114588.08114699-.0140312.15668151-.0434966.22496659-.0832517.19550111-.1143541.32786191-.3210801.32786191-.5593763 0-.0425613-.00491091-.0841871-.01286191-.1248775-.00233853-.0109911-.00608018-.0210468-.00888642-.0320379-.1323608-.4737862-.25934298-.9494432-.35592427-1.430245-1.07128062-5.3281069 2.51859688-9.89829621 7.78636973-9.89829621 4.8384187 0 8.0920156 2.947951 8.0920156 7.38297331 0 1.7646547-.720735 2.6439421-1.9994432 2.6177505-.0021047 0-.0039755-.0007015-.0060802-.0007015-.001637 0-.003274.0004677-.0051448.0004677-.0247884-.0004677-.0498107.0009354-.0743652-.0004677-.0030401.0028062-.004911.0058463-.007951.0086525-.3280958.0423274-.5829956.3142985-.5829956.6454343 0 .3012027.2102339.552127.4943653.6281292.0084187.0035078.0175389.0067817.033441.0109911.0007015 0 .00304.0002338.0039755.0007015.0053786.0009355.0112249.0014032.0166035.0023386.0140312.0018708.0308686.0035078.0516815.0051447.0233853.0021047.0463029.0067818.0703898.0067818.0086525 0 .0166035-.0021047.0252561-.0023386.1354009.0039755.2967595.0023386.2967595.0023386 2.1-.162294 2.8546436-1.8689533 2.8546436-4.3342316 0-6.14612477-6.7115813-9.9478731-12.56562358-7.66850784" fill="#1D1D1A"/><path d="M268.2944111 16.59377357c.02791667-.00458333.05291667-.015.08-.02166667-.02791667.00708334-.055.01458334-.08291667.02208334.00083334-.00041667.00166667-.00041667.00291667-.00041667" fill="#00AEEF"/><path d="M268.8246559 15.82903898c-.00210468-.01075724-.00584632-.02081292-.00841871-.03133631-.07155902-.28038975-.32949888-.48945434-.63865256-.48945434-.04045657 0-.07974387.00491091-.11809577.01169265-.05051225.01426503-.09915367.02969933-.14873051.04443207-1.07642539.32108018-1.96857461.75885301-2.88387528 1.29461025-1.26140311.73850779-2.26556793 1.57195991-3.3251559 2.90188196-.15130289.18988864-.42140312.4394098-.59983296.70740534-.08979956.09821826-.14826281.22262806-.16416481.36013363-.03694878.1791314.00537862.35826281.18170378.52640312.00631404.00654788.01332963.01239421.01987751.01870824.02361915.02128062.04910913.04232739.07740535.06337417.00304008.00233853.00608017.0039755.00912026.00631403 0 0 .00023386 0 .00023386.00023385.71301781.51424276 1.16575723-.45765033 1.48356347-.85870824 1.67134744-2.10818486 3.2863363-3.20706013 5.58183742-3.80034521.01566815-.0039755.03086859-.00841871.0467706-.01239421.06243875-.01566815.12230512-.03811804.17655902-.0696882.19246102-.11248329.32271715-.31570156.32271715-.55025612 0-.04209354-.00491092-.08301782-.01286192-.12300668M281.1987773 19.80510134c-.031804-.05706014-.0699221-.11014477-.1171604-.1552784-2.4409577-3.11375278-5.7025055-4.62-9.6111247-4.69951002-.1732851.00233853-.6112918 0-.6622717 0-.3697216 0-.6706904.29348552-.6706904.65408686 0 .36083519.3009688.65408686.6706904.65408686 3.4397439-.1786637 6.9047439 1.21089087 9.2472494 4.21239421l.0004677.0004677c.0074833.0114588.0168375.02151448.0250223.03227172.1220713.15878619.3145323.26308463.5331849.26308463.3687862 0 .6683519-.29255011.6683519-.65198218 0-.1124833-.0320379-.21724945-.0837194-.30962138" fill="#1D1D1A"/><g fill="#1D1D1A"><path d="M277.79032335 26.42686009c-.01028953-.2060245-.03928731-.41228285-.07717149-.61550112-.31593542-1.69309577-1.29344098-3.22459911-2.6016147-4.17380846.11178173.08979955.1945657.21327394.23057906.35475501.00257238.01122495.00678174.02151448.00912027.03273942.007951.04115813.01286191.08371938.01286191.12721604 0 .24273942-.13469933.45320712-.33370824.56943207-.0696882.04069042-.14662583.07062361-.2294098.08488864-.0388196.00678174-.0785746.01169265-.11949888.01169265-.13610245 0-.26191537-.03975501-.36831849-.10687082 1.07315145.88630289 1.98003341 2.35489977 2.14022272 3.83402004.05144766.47448775.10032294.95926503.70389755.93985524.68518931-.02174833.65712695-.57247217.63304009-1.05841871"/><path d="M274.80105052 22.80660508c.08278396-.01449889.15948775-.04419822.22917595-.08488865.19924276-.11622494.33394209-.32669265.33394209-.56943207 0-.04349666-.00491091-.0860579-.01309577-.12744989-.00233853-.01099109-.00631403-.02128062-.00888641-.03250556-.03624722-.14148107-.11879733-.26495546-.23081292-.35475502-.00865256-.00631403-.01730512-.01286191-.02595768-.01894209-.112951-.08255011-.25209355-.1323608-.404098-.1323608-.37650334 0-.68285078.29863029-.68285078.66601336 0 .04162584.00491091.08184855.01262806.12113586.00841871.04466592.02104677.08769488.03811804.128853.03367484.08044544.08395323.15223831.14498887.2135078.03998886.0308686.07951002.06290646.11879732.09564588.10640312.06711581.2324499.10687083.36831849.10687083.04115813 0 .08067929-.00491092.11973274-.01169265"/></g><path d="M275.0854855 21.61849109c.0154167.01125.0308334.0225.04625.03375-.015-.01208333-.0308333-.0225-.04625-.03375M274.4060085 22.7862441c-.0704166-.0583334-.1408333-.1154167-.2116666-.1704167.0641666.0641667.1341666.1216667.2116666.1704167" fill="#00AEEF"/><path d="M272.0032474 23.4664549c-.0020833-.0004167-.0033333-.0008333-.0054167-.00125.0020834.0008333.0041667.00125.00625.0020833l-.0008333-.0008333zM274.7027383 34.1782684c-.3701893-.13049-.7553452-.2326838-1.1065924-.4012918-2.8331292-1.3605568-4.3573831-3.5866035-4.5035412-6.662706-.065245-1.3752895.8465479-2.3404009 2.1210467-2.38951l.0184744-.0063141c.0774054-.0123942.1503675-.0378841.2167818-.0736636.2050891-.1101448.3458686-.3203787.3458686-.5642874 0-.2422717-.1389087-.4513363-.3416593-.5621826-.0895657-.0486414-.1903563-.0785746-.2988641-.0823162-.0077172-.0002339-.0149666-.0023386-.0226838-.0023386-.0149666 0-.0292316.0035078-.0439643.0044432-1.7057239.1071047-3.07937641 1.3292205-3.3034076 2.9888753-.50418708 3.7383742 2.7452005 8.2164254 6.5034521 8.9666258.4281849.0855903.8154455.0626727.9471047-.418363.1157572-.4223385-.1470935-.6613363-.5320156-.796971M274.7224989 26.223735c-.006314-.0512138-.0194098-.0998553-.0369488-.1468597-.1241759-.4777617-.3168708-1.0371381-.5932851-1.4162138-.020579-.0325056-.0441982-.0629065-.0701559-.0914366-.0044432-.0053786-.0084187-.0116926-.0128619-.0168374-.0009354-.0011692-.0025724-.0016369-.0037416-.0028062-.1220713-.1244098-.2930178-.2027506-.4831403-.2027506-.3699555 0-.6706905.2934856-.6706905.6540869 0 .0687528.0137974.1335301.0341426.195735l-.0025724.0025723s.0039755.0084188.0107572.0236192c.0084187.0226837.0182406.0444321.0289978.0657127.0696882.1613586.2235635.5411359.4045657 1.1283408.0098218.060334.0268931.1180957.0519154.1718819.1108463.2394655.356392.4069042.642628.4069042.1232406 0 .237127-.0334409.3379176-.0876948.2184187-.1171604.3683185-.3411916.3683185-.6012361 0-.0280624-.0023385-.055657-.0058463-.0830178" fill="#1D1D1A"/><path d="M267.51734744 31.8872339c.02416667.0404166.04666667.08125.07083333.1216666-.02125-.0420833-.04458333-.0825-.07083333-.1216666M266.34134744 32.5085345c.03125.06875.06916667.13375.11333333.1945834-.025-.0429167-.04958333-.08625-.07208333-.1258334-.00333333-.0058333-.01958333-.0325-.04125-.06875" fill="#E82227"/><path d="M269.7137183 20.78859354c-.1073386 0-.3005012.07085746-.3021381.07085746-2.76601338.81006682-4.63309579 3.302706-4.60433187 6.3257238.05589087 1.8909354.88653675 4.1904121 1.43679287 5.1520156.02548998.0512138.06992205.1260468.09728285.1714143.01216036.0203452.02128063.0350779.0233853.0383519.01239421.0224499.02619154.0465367.04022272.0708574.12160356.168608.32224944.2799221.54932071.2799221.11716036 0 .22590201-.0320379.32201559-.0837194.20812918-.1115479.35077951-.3248218.35077951-.572706 0-.1031292-.02595768-.1992428-.06992204-.2860022-.01356348-.0226838-.02619154-.0456014-.03975502-.0682851-.93471046-1.5588642-1.40896436-3.2793207-1.34863029-5.1852227.07015591-2.2185635 1.65100223-4.0140869 3.67336307-4.6176615.0402227-.0074833.0788084-.0194098.1162249-.0339087.0598664-.0163697.237127-.12791758.2541982-.17468818.1057016-.11552339.1716481-.26612473.1716481-.43286192 0-.36060134-.3007349-.65408686-.6704565-.65408686" fill="#00AC75"/><path d="M277.8805434 31.8173586c-.0912026-.0498107-.1936303-.0802116-.3042427-.0837194h-.0002339c-.0378842.0037416-.0755345.0060802-.1131848.0093541-2.8738196.2439087-5.2086081-1.6383741-5.4576615-4.4406347-.043029-.4861804-.0273608-1.0542094-.7109132-1.0046325-.6302338.046069-.6356124.6646102-.6031069 1.1542984.2097662 3.1647327 2.93696 5.611069 6.2431738 5.6456793.2149109 0 .432628-.0208129.6503452-.0507461.0427951-.0058463.0855902-.0116927.1286191-.0184744.057294-.0144989.1120156-.0357795.1629956-.0633742.2090646-.1120156.3524165-.3264588.3524165-.5752784 0-.2467149-.1414811-.459755-.3482072-.5724721" fill="#1D1D1A"/></g></svg>